<svg width="120" height="120" viewBox="0 0 120 120" fill="none" xmlns="http://www.w3.org/2000/svg">
<g clip-path="url(#clip0_70015_785)">
<path d="M52.4999 18.75C52.4999 23.7228 50.5245 28.4919 47.0082 32.0083C43.4918 35.5246 38.7227 37.5 33.7499 37.5C28.7771 37.5 24.0079 35.5246 20.4916 32.0083C16.9753 28.4919 14.9999 23.7228 14.9999 18.75C14.9999 13.7772 16.9753 9.00805 20.4916 5.49175C24.0079 1.97544 28.7771 0 33.7499 0C38.7227 0 43.4918 1.97544 47.0082 5.49175C50.5245 9.00805 52.4999 13.7772 52.4999 18.75ZM84.1874 49.1475C83.4841 48.7952 82.6878 48.673 81.9111 48.7981C81.1345 48.9233 80.4169 49.2895 79.8599 49.845L52.0349 85.17L32.0849 64.38C31.3646 63.9004 30.5006 63.6848 29.6394 63.7695C28.7783 63.8543 27.9729 64.2342 27.3599 64.845L0.0148926 97.5V112.5C0.0148926 114.489 0.805069 116.397 2.21159 117.803C3.61811 119.21 5.52577 120 7.51489 120H112.515C113.5 120 114.475 119.806 115.385 119.429C116.295 119.052 117.122 118.5 117.818 117.803C118.515 117.107 119.067 116.28 119.444 115.37C119.821 114.46 120.015 113.485 120.015 112.5V78.75L84.1874 49.1475Z" fill="url(#paint0_linear_70015_785)"/>
</g>
<defs>
<linearGradient id="paint0_linear_70015_785" x1="60.0149" y1="0" x2="60.0149" y2="120" gradientUnits="userSpaceOnUse">
<stop stop-color="#873EFF"/>
<stop offset="1" stop-color="#873EFF" stop-opacity="0"/>
</linearGradient>
<clipPath id="clip0_70015_785">
<rect width="120" height="120" fill="white"/>
</clipPath>
</defs>
</svg>
